<svg width="641" height="350" viewBox="0 0 641 350" fill="none" xmlns="http://www.w3.org/2000/svg">
<path d="M490.854 116.269C490.627 117.178 488.355 127.629 484.038 140.352L465.862 194.88H516.074L497.898 140.352C493.354 126.947 491.309 116.269 491.309 116.269H490.854ZM538.566 261.904L524.026 218.736H457.91L443.37 261.904H412.925L474.042 88.0961H509.939L571.738 261.904H538.566Z" fill="black"/>
<path d="M320.011 116.269C319.783 117.178 317.511 127.629 313.195 140.352L295.019 194.88H345.23L327.054 140.352C322.51 126.947 320.465 116.269 320.465 116.269H320.011ZM367.723 261.904L353.182 218.736H287.067L272.526 261.904H242.081L303.198 88.0961H339.095L400.894 261.904H367.723Z" fill="black"/>
<path d="M149.167 116.269C148.94 117.178 146.668 127.629 142.351 140.352L124.175 194.88H174.386L156.21 140.352C151.666 126.947 149.621 116.269 149.621 116.269H149.167ZM196.879 261.904L182.338 218.736H116.223L101.682 261.904H71.2373L132.354 88.0961H168.252L230.05 261.904H196.879Z" fill="black"/>
</svg>
